# xmcd CD database file
#
# Track frame offsets:
#	150
#	25161
#	35080
#	53291
#	55975
#	74281
#	91202
#	108402
#	123191
#	129876
#	142987
#	144959
#	163670
#	181648
#	196973
#	201874
#	206250
#	207405
#
# Disc length: 2980 seconds
#
# Revision: 0
# Processed by: cddbd v1.5.2PL0 Copyright (c) Steve Scherf et al.
# Submitted via: CDex 1.50Beta7
#
DISCID=f30ba212
DTITLE=Halper Laszlo - Urban Noises
DYEAR=2003
DGENRE=Jazz
TTITLE0=My Sorrowful Heart
TTITLE1=Clock Shuffle
TTITLE2=Iron Cutter Grind
TTITLE3=Mornin' Kitchen Clatter
TTITLE4=Tip Top Funk
TTITLE5=Sweet Home Swinging Gate
TTITLE6=Den Haag Jam
TTITLE7=Sleigh With Ornamental Tower
TTITLE8=Medi-Machine Massage
TTITLE9=Little Piggy Teuf-Teuf-Teuf
TTITLE10=Welcome Rainfall On My Car
TTITLE11=On The Line
TTITLE12=Radio Babel
TTITLE13=Oh My Sweet Wineglass
TTITLE14=Tram Moanin' March
TTITLE15=De-Bop
TTITLE16=Raindrop Chatter
TTITLE17=4/C
EXTD=YEAR: 2003
EXTT0=
EXTT1=
EXTT2=
EXTT3=
EXTT4=
EXTT5=
EXTT6=
EXTT7=
EXTT8=
EXTT9=
EXTT10=
EXTT11=
EXTT12=
EXTT13=
EXTT14=
EXTT15=
EXTT16=
EXTT17=
PLAYORDER=
